# Blender v2.78 (sub 0) OBJ File: 'tree.blend'
# www.blender.org
mtllib tree2.mtl
o Icosphere.003
v 9.932755 11.111559 3.139390
v 10.009657 12.551138 4.186028
v 9.093011 11.116438 4.710554
v 8.298094 10.416928 3.277871
v 8.723480 11.419341 1.867905
v 9.781277 12.738341 2.429189
v 8.422520 12.746222 4.971379
v 7.364724 11.427221 4.410096
v 7.136343 11.614424 2.653257
v 8.052990 13.049124 2.128731
v 8.847906 13.748634 3.561414
v 7.213245 13.054004 3.699894
v 10.995653 7.287725 1.393385
v 12.329126 8.088043 2.414378
v 10.555512 8.172663 2.969534
v 9.489370 8.377672 1.458760
v 10.604116 8.419750 -0.030097
v 12.359165 8.240749 0.560520
v 11.646978 9.672621 3.110775
v 9.891929 9.851621 2.520158
v 9.921968 10.004328 0.666300
v 11.695582 9.919708 0.111144
v 12.761724 9.714699 1.621917
v 11.255442 10.804646 1.687292
v 5.779139 7.776644 3.463822
v 7.112613 8.576962 4.484816
v 5.338999 8.661582 5.039971
v 4.272857 8.866590 3.529197
v 5.387603 8.908669 2.040340
v 7.142652 8.729669 2.630957
v 6.430465 10.161539 5.181211
v 4.675415 10.340540 4.590595
v 4.705454 10.493246 2.736736
v 6.479069 10.408627 2.181581
v 7.545211 10.203618 3.692354
v 6.038928 11.293564 3.757729
v 6.347662 7.828081 2.452544
v 9.171177 7.496190 4.093901
v 6.928443 9.668157 5.108337
v 5.542324 11.010539 2.452544
v 6.928443 9.668158 -0.203249
v 9.171177 7.496191 0.811187
v 10.110879 10.473539 5.108337
v 7.868145 12.645506 4.093901
v 7.868145 12.645506 0.811188
v 10.110879 10.473539 -0.203249
v 11.496999 9.131157 2.452544
v 10.691660 12.313616 2.452544
v 6.427094 4.889222 0.631899
v 9.147350 4.569469 2.213229
v 6.986636 6.662004 3.190567
v 5.651208 7.955294 0.631899
v 6.986636 6.662004 -1.926768
v 9.147350 4.569469 -0.949431
v 10.052687 7.437932 3.190567
v 7.891972 9.530468 2.213229
v 7.891972 9.530468 -0.949431
v 10.052686 7.437932 -1.926768
v 11.388114 6.144643 0.631899
v 10.612227 9.210714 0.631899
v 9.224730 7.290469 4.521509
v 8.155868 8.298948 6.509320
v 7.755006 5.921674 5.962757
v 7.613031 5.716706 3.503328
v 7.926156 7.967348 2.529920
v 8.261642 9.563233 4.387729
v 5.883564 7.348454 6.719690
v 5.548077 5.752569 4.861882
v 5.653853 7.016854 2.740291
v 6.054714 9.394129 3.286854
v 6.196689 9.599095 5.746283
v 4.584991 8.025333 4.728103
v 7.854053 5.058621 3.614374
v 10.847562 4.706749 5.354550
v 8.469802 7.009481 6.430062
v 7.000228 8.432684 3.614374
v 8.469801 7.009482 0.798686
v 10.847561 4.706749 1.874198
v 11.843840 7.863353 6.430062
v 9.466080 10.166085 5.354550
v 9.466080 10.166085 1.874198
v 11.843840 7.863353 0.798686
v 13.313412 6.440151 3.614374
v 12.459587 9.814213 3.614374
v 5.567050 5.756413 -0.056856
v 7.338861 5.559722 1.945282
v 4.737585 5.106139 2.408034
v 3.319337 6.834628 0.929000
v 5.044150 8.356463 -0.447835
v 7.528328 7.568516 0.180273
v 6.186189 6.516371 4.168550
v 3.702012 7.304318 3.540442
v 3.891478 9.313112 1.775434
v 6.492755 9.766695 1.312682
v 7.911003 8.038207 2.791715
v 5.663290 9.116422 3.777572
v 8.001395 -0.949487 1.888952
v 8.001395 0.578187 2.240742
v 8.818357 -0.949488 2.227348
v 8.569603 0.578187 2.476101
v 9.156753 -0.949488 3.044309
v 8.804963 0.578187 3.044309
v 8.818357 -0.949488 3.861271
v 8.569603 0.578187 3.612517
v 8.001395 -0.949487 4.199667
v 8.001395 0.578187 3.847877
v 7.184434 -0.949488 3.861270
v 7.433187 0.578187 3.612517
v 6.846037 -0.949487 3.044309
v 7.197828 0.578187 3.044309
v 7.184434 -0.949487 2.227348
v 7.433187 0.578187 2.476101
v 8.001395 1.485206 2.394416
v 8.460939 1.485206 2.584765
v 8.651289 1.485206 3.044309
v 8.460939 1.485206 3.503853
v 8.001395 1.485206 3.694203
v 7.541851 1.485206 3.503853
v 7.351502 1.485207 3.044309
v 7.541851 1.485206 2.584765
v 8.030172 3.146158 2.361985
v 8.520802 3.146158 2.565210
v 8.724026 3.146158 3.055838
v 8.520802 3.146158 3.546467
v 8.030172 3.146158 3.749692
v 7.539544 3.146158 3.546467
v 7.336319 3.146158 3.055839
v 7.539544 3.146158 2.565210
v 8.934063 4.345772 3.233305
v 9.217838 4.292162 3.342691
v 9.372922 4.105003 3.697152
v 9.217838 4.020811 4.089047
v 8.843433 4.088905 4.288812
v 7.947887 3.880165 3.055838
v 8.658566 4.342150 3.783370
v 9.540021 6.351303 3.685969
v 9.908567 6.300694 3.840059
v 10.061225 6.279732 4.212065
v 9.908567 6.300694 4.584070
v 9.540021 6.351303 4.738161
v 9.358046 6.376293 4.212065
v 9.752416 8.321735 4.031429
v 9.878957 8.304358 4.084336
v 9.931372 8.297159 4.212065
v 9.878957 8.304358 4.339794
v 9.752416 8.321735 4.392700
v 9.689934 8.330313 4.212065
v 6.708596 4.208636 1.483908
v 6.599840 4.528654 2.498775
v 6.196769 4.452590 2.350151
v 6.029811 4.268952 1.991341
v 6.196769 4.085316 1.632532
v 6.958007 4.450212 1.991341
v 6.129762 6.678559 1.482585
v 6.129762 6.678559 2.195956
v 5.877547 6.678559 2.091485
v 5.773077 6.678559 1.839270
v 5.877547 6.678559 1.587056
v 6.353878 6.678559 1.839270
v 5.967764 8.430418 1.709017
v 5.967765 8.430418 1.969524
v 5.875662 8.430418 1.931373
v 5.837512 8.430417 1.839270
v 5.875662 8.430418 1.747167
v 6.049606 8.430418 1.839270
v 8.001394 -1.575922 1.110090
v 9.369095 -1.575922 1.676610
v 9.935615 -1.575922 3.044309
v 9.369095 -1.575922 4.412009
v 8.001395 -1.575922 4.978529
v 6.633695 -1.575922 4.412008
v 6.067176 -1.575922 3.044309
v 6.633695 -1.575922 1.676610
vn 0.8211 -0.3637 0.4400
vn 0.9915 0.0378 -0.1249
vn 0.3973 -0.8921 0.2151
vn 0.3058 -0.8171 -0.4887
vn 0.6730 -0.2424 -0.6988
vn 0.7229 0.6907 -0.0204
vn 0.4472 0.0410 0.8935
vn -0.2385 -0.8140 0.5297
vn -0.3865 -0.6926 -0.6090
vn 0.2077 0.2373 -0.9490
vn 0.3865 0.6926 0.6090
vn -0.2076 -0.2373 0.9490
vn -0.7229 -0.6907 0.0204
vn -0.4472 -0.0410 -0.8935
vn 0.2385 0.8140 -0.5297
vn -0.3058 0.8171 0.4887
vn -0.6730 0.2424 0.6988
vn -0.9915 -0.0378 0.1249
vn -0.8211 0.3637 -0.4400
vn -0.3973 0.8921 -0.2151
vn 0.1194 -0.8511 0.5112
vn 0.5470 -0.8350 -0.0599
vn -0.5538 -0.7825 0.2847
vn -0.5423 -0.7239 -0.4265
vn 0.1380 -0.7563 -0.6394
vn 0.9657 -0.2596 -0.0057
vn 0.2738 -0.2857 0.9184
vn -0.8155 -0.1746 0.5518
vn -0.7968 -0.0798 -0.5989
vn 0.3040 -0.1324 -0.9434
vn 0.7968 0.0798 0.5989
vn -0.3040 0.1324 0.9434
vn -0.9657 0.2596 0.0057
vn -0.2738 0.2857 -0.9184
vn 0.8155 0.1746 -0.5518
vn 0.5423 0.7239 0.4265
vn -0.1381 0.7563 0.6394
vn -0.5470 0.8350 0.0599
vn -0.1194 0.8511 -0.5112
vn 0.5538 0.7825 -0.2847
vn 0.1381 -0.7563 -0.6394
vn -0.7969 -0.0798 -0.5989
vn -0.1380 0.7563 0.6394
vn -0.4181 -0.7013 0.5774
vn -0.1167 -0.9932 -0.0000
vn -0.9056 -0.2292 0.3568
vn -0.9056 -0.2292 -0.3568
vn -0.4181 -0.7013 -0.5774
vn 0.5751 -0.8181 -0.0000
vn 0.0875 -0.3459 0.9342
vn -0.7013 0.4181 0.5774
vn -0.7013 0.4181 -0.5774
vn 0.0875 -0.3459 -0.9342
vn 0.7013 -0.4181 0.5774
vn -0.0875 0.3459 0.9342
vn -0.5751 0.8181 0.0000
vn -0.0875 0.3459 -0.9342
vn 0.7013 -0.4181 -0.5774
vn 0.9056 0.2292 0.3568
vn 0.4181 0.7013 0.5774
vn 0.1167 0.9932 -0.0000
vn 0.4181 0.7013 -0.5774
vn 0.9056 0.2292 -0.3568
vn 0.7888 -0.2610 0.5565
vn 0.8792 0.3888 0.2755
vn 0.6919 -0.7217 0.0202
vn 0.7225 -0.3567 -0.5923
vn 0.8382 0.3296 -0.4345
vn 0.3389 0.8007 0.4940
vn 0.1927 -0.2506 0.9487
vn 0.0359 -0.9961 0.0809
vn 0.0854 -0.4055 -0.9101
vn 0.2726 0.7049 -0.6548
vn -0.0854 0.4055 0.9101
vn -0.2726 -0.7049 0.6548
vn -0.3389 -0.8007 -0.4940
vn -0.1927 0.2506 -0.9487
vn -0.0360 0.9961 -0.0809
vn -0.7225 0.3567 0.5923
vn -0.8382 -0.3296 0.4345
vn -0.8792 -0.3888 -0.2755
vn -0.7888 0.2610 -0.5565
vn -0.6919 0.7217 -0.0202
vn 0.1313 -0.9686 -0.2113
vn 0.5904 -0.5634 -0.5779
vn -0.5300 -0.7588 -0.3785
vn -0.4796 -0.2240 -0.8484
vn 0.2129 -0.1033 -0.9716
vn 0.9761 -0.1880 -0.1092
vn 0.2332 -0.8435 0.4838
vn -0.8369 -0.5041 0.2133
vn -0.7553 0.3611 -0.5470
vn 0.3652 0.5565 -0.7463
vn 0.7553 -0.3611 0.5470
vn -0.3652 -0.5565 0.7463
vn -0.9761 0.1880 0.1092
vn -0.2332 0.8435 -0.4838
vn 0.8369 0.5041 -0.2133
vn 0.4796 0.2240 0.8484
vn -0.2129 0.1033 0.9716
vn -0.5904 0.5634 0.5779
vn -0.1313 0.9686 0.2113
vn 0.5300 0.7588 0.3785
vn 0.3743 0.2081 -0.9037
vn 0.9037 0.2081 -0.3743
vn 0.9037 0.2081 0.3743
vn 0.3743 0.2081 0.9037
vn -0.3743 0.2081 0.9037
vn -0.9037 0.2081 0.3743
vn -0.9128 0.1546 0.3781
vn -0.3743 0.2081 -0.9037
vn -0.9037 0.2081 -0.3743
vn -0.6066 0.7542 -0.2513
vn -0.9239 -0.0058 -0.3827
vn 0.9128 0.1546 -0.3781
vn 0.3781 0.1546 -0.9128
vn -0.3781 0.1546 0.9128
vn -0.3781 0.1546 -0.9128
vn 0.3781 0.1546 0.9128
vn -0.9128 0.1546 -0.3781
vn 0.9128 0.1546 0.3781
vn -0.3827 -0.0114 -0.9238
vn -0.3826 -0.0242 0.9236
vn 0.9230 -0.0431 0.3823
vn 0.3826 -0.0247 -0.9236
vn 0.8649 -0.2661 -0.4256
vn -0.9238 -0.0111 0.3827
vn 0.3824 -0.0375 0.9232
vn 0.9232 -0.0378 -0.3824
vn 0.7105 -0.6668 0.2249
vn 0.2778 -0.6512 0.7063
vn -0.7744 0.3929 0.4959
vn 0.3713 0.3509 -0.8597
vn -0.2760 0.7921 -0.5445
vn -0.9003 0.2152 0.3782
vn 0.3856 0.0927 -0.9180
vn 0.8839 -0.1878 -0.4282
vn 0.8798 -0.3462 0.3258
vn -0.8568 0.3579 -0.3713
vn 0.3717 -0.2964 0.8798
vn 0.3967 0.1169 0.9105
vn -0.9308 0.1581 0.3295
vn 0.3967 0.1169 -0.9105
vn -0.9308 0.1581 -0.3295
vn 0.9247 0.0595 -0.3761
vn 0.9247 0.0595 0.3761
vn -0.7814 -0.4456 0.4369
vn -0.5765 -0.8136 -0.0753
vn 0.7384 0.4695 -0.4840
vn -0.1321 -0.7559 -0.6412
vn 0.1963 0.8411 0.5041
vn -0.3658 0.3913 0.8444
vn -0.3047 -0.0628 -0.9504
vn 0.8126 0.2539 0.5246
vn -0.3652 0.0534 0.9294
vn 0.8365 0.1939 -0.5126
vn -0.9028 -0.0746 0.4235
vn -0.9202 -0.1206 -0.3725
vn -0.3813 0.0837 -0.9206
vn 0.8377 0.1455 0.5264
vn -0.3813 0.0837 0.9206
vn 0.8377 0.1455 -0.5264
vn -0.9233 0.0340 0.3825
vn -0.9233 0.0340 -0.3825
vn 0.1360 0.9907 -0.0000
vn -0.0000 1.0000 -0.0000
vn -0.0000 -1.0000 0.0000
vn 0.6066 0.7542 0.2513
vn -0.6066 0.7542 0.2513
vn 0.6066 0.7542 -0.2513
vn 0.2513 0.7542 -0.6066
vn -0.2513 0.7542 0.6066
vn -0.2513 0.7542 -0.6066
vn 0.2513 0.7542 0.6066
usemtl Material.002
s off
f 1//1 2//1 3//1
f 2//2 1//2 6//2
f 1//3 3//3 4//3
f 1//4 4//4 5//4
f 1//5 5//5 6//5
f 2//6 6//6 11//6
f 3//7 2//7 7//7
f 4//8 3//8 8//8
f 5//9 4//9 9//9
f 6//10 5//10 10//10
f 2//11 11//11 7//11
f 3//12 7//12 8//12
f 4//13 8//13 9//13
f 5//14 9//14 10//14
f 6//15 10//15 11//15
f 7//16 11//16 12//16
f 8//17 7//17 12//17
f 9//18 8//18 12//18
f 10//19 9//19 12//19
f 11//20 10//20 12//20
f 13//21 14//21 15//21
f 14//22 13//22 18//22
f 13//23 15//23 16//23
f 13//24 16//24 17//24
f 13//25 17//25 18//25
f 14//26 18//26 23//26
f 15//27 14//27 19//27
f 16//28 15//28 20//28
f 17//29 16//29 21//29
f 18//30 17//30 22//30
f 14//31 23//31 19//31
f 15//32 19//32 20//32
f 16//33 20//33 21//33
f 17//34 21//34 22//34
f 18//35 22//35 23//35
f 19//36 23//36 24//36
f 20//37 19//37 24//37
f 21//38 20//38 24//38
f 22//39 21//39 24//39
f 23//40 22//40 24//40
f 25//21 26//21 27//21
f 26//22 25//22 30//22
f 25//23 27//23 28//23
f 25//24 28//24 29//24
f 25//41 29//41 30//41
f 26//26 30//26 35//26
f 27//27 26//27 31//27
f 28//28 27//28 32//28
f 29//42 28//42 33//42
f 30//30 29//30 34//30
f 26//31 35//31 31//31
f 27//32 31//32 32//32
f 28//33 32//33 33//33
f 29//34 33//34 34//34
f 30//35 34//35 35//35
f 31//36 35//36 36//36
f 32//43 31//43 36//43
f 33//38 32//38 36//38
f 34//39 33//39 36//39
f 35//40 34//40 36//40
f 37//44 38//44 39//44
f 38//45 37//45 42//45
f 37//46 39//46 40//46
f 37//47 40//47 41//47
f 37//48 41//48 42//48
f 38//49 42//49 47//49
f 39//50 38//50 43//50
f 40//51 39//51 44//51
f 41//52 40//52 45//52
f 42//53 41//53 46//53
f 38//54 47//54 43//54
f 39//55 43//55 44//55
f 40//56 44//56 45//56
f 41//57 45//57 46//57
f 42//58 46//58 47//58
f 43//59 47//59 48//59
f 44//60 43//60 48//60
f 45//61 44//61 48//61
f 46//62 45//62 48//62
f 47//63 46//63 48//63
f 49//44 50//44 51//44
f 50//45 49//45 54//45
f 49//46 51//46 52//46
f 49//47 52//47 53//47
f 49//48 53//48 54//48
f 50//49 54//49 59//49
f 51//50 50//50 55//50
f 52//51 51//51 56//51
f 53//52 52//52 57//52
f 54//53 53//53 58//53
f 50//54 59//54 55//54
f 51//55 55//55 56//55
f 52//56 56//56 57//56
f 53//57 57//57 58//57
f 54//58 58//58 59//58
f 55//59 59//59 60//59
f 56//60 55//60 60//60
f 57//61 56//61 60//61
f 58//62 57//62 60//62
f 59//63 58//63 60//63
f 61//64 62//64 63//64
f 62//65 61//65 66//65
f 61//66 63//66 64//66
f 61//67 64//67 65//67
f 61//68 65//68 66//68
f 62//69 66//69 71//69
f 63//70 62//70 67//70
f 64//71 63//71 68//71
f 65//72 64//72 69//72
f 66//73 65//73 70//73
f 62//74 71//74 67//74
f 63//75 67//75 68//75
f 64//76 68//76 69//76
f 65//77 69//77 70//77
f 66//78 70//78 71//78
f 67//79 71//79 72//79
f 68//80 67//80 72//80
f 69//81 68//81 72//81
f 70//82 69//82 72//82
f 71//83 70//83 72//83
f 73//44 74//44 75//44
f 74//45 73//45 78//45
f 73//46 75//46 76//46
f 73//47 76//47 77//47
f 73//48 77//48 78//48
f 74//49 78//49 83//49
f 75//50 74//50 79//50
f 76//51 75//51 80//51
f 77//52 76//52 81//52
f 78//53 77//53 82//53
f 74//54 83//54 79//54
f 75//55 79//55 80//55
f 76//56 80//56 81//56
f 77//57 81//57 82//57
f 78//58 82//58 83//58
f 79//59 83//59 84//59
f 80//60 79//60 84//60
f 81//61 80//61 84//61
f 82//62 81//62 84//62
f 83//63 82//63 84//63
f 85//84 86//84 87//84
f 86//85 85//85 90//85
f 85//86 87//86 88//86
f 85//87 88//87 89//87
f 85//88 89//88 90//88
f 86//89 90//89 95//89
f 87//90 86//90 91//90
f 88//91 87//91 92//91
f 89//92 88//92 93//92
f 90//93 89//93 94//93
f 86//94 95//94 91//94
f 87//95 91//95 92//95
f 88//96 92//96 93//96
f 89//97 93//97 94//97
f 90//98 94//98 95//98
f 91//99 95//99 96//99
f 92//100 91//100 96//100
f 93//101 92//101 96//101
f 94//102 93//102 96//102
f 95//103 94//103 96//103
usemtl Material.001
f 97//104 98//104 100//104 99//104
f 99//105 100//105 102//105 101//105
f 101//106 102//106 104//106 103//106
f 103//107 104//107 106//107 105//107
f 105//108 106//108 108//108 107//108
f 107//109 108//109 110//109 109//109
f 110//110 108//110 118//110 119//110
f 111//111 112//111 98//111 97//111
f 109//112 110//112 112//112 111//112
f 109//113 111//113 173//113 172//113
f 119//114 127//114 128//114 120//114
f 102//115 100//115 114//115 115//115
f 100//116 98//116 113//116 114//116
f 108//117 106//117 117//117 118//117
f 98//118 112//118 120//118 113//118
f 106//119 104//119 116//119 117//119
f 112//120 110//120 119//120 120//120
f 104//121 102//121 115//121 116//121
f 120//122 128//122 121//122 113//122
f 117//123 125//123 126//123 118//123
f 115//124 123//124 124//124 116//124
f 113//125 121//125 122//125 114//125
f 123//126 122//126 130//126 131//126
f 118//127 126//127 127//127 119//127
f 116//128 124//128 125//128 117//128
f 114//129 122//129 123//129 115//129
f 124//130 123//130 131//130 132//130
f 125//131 124//131 132//131 133//131
f 134//132 125//132 133//132 135//132
f 122//133 121//133 129//133 130//133
f 121//134 134//134 135//134 129//134
f 135//135 133//135 140//135 141//135
f 130//136 129//136 136//136 137//136
f 131//137 130//137 137//137 138//137
f 132//138 131//138 138//138 139//138
f 129//139 135//139 141//139 136//139
f 133//140 132//140 139//140 140//140
f 140//141 139//141 145//141 146//141
f 141//142 140//142 146//142 147//142
f 137//143 136//143 142//143 143//143
f 136//144 141//144 147//144 142//144
f 138//145 137//145 143//145 144//145
f 139//146 138//146 144//146 145//146
f 127//147 126//147 150//147 151//147
f 128//148 127//148 151//148 152//148
f 134//149 121//149 148//149 153//149
f 121//150 128//150 152//150 148//150
f 125//151 134//151 153//151 149//151
f 126//152 125//152 149//152 150//152
f 148//153 152//153 158//153 154//153
f 149//154 153//154 159//154 155//154
f 150//155 149//155 155//155 156//155
f 153//156 148//156 154//156 159//156
f 151//157 150//157 156//157 157//157
f 152//158 151//158 157//158 158//158
f 154//159 158//159 164//159 160//159
f 155//160 159//160 165//160 161//160
f 156//161 155//161 161//161 162//161
f 159//162 154//162 160//162 165//162
f 157//163 156//163 162//163 163//163
f 158//164 157//164 163//164 164//164
f 143//165 142//165 147//165 146//165 145//165 144//165
f 162//166 161//166 165//166 160//166 164//166 163//166
f 166//167 167//167 168//167 169//167 170//167 171//167 172//167 173//167
f 101//168 103//168 169//168 168//168
f 107//169 109//169 172//169 171//169
f 99//170 101//170 168//170 167//170
f 97//171 99//171 167//171 166//171
f 105//172 107//172 171//172 170//172
f 111//173 97//173 166//173 173//173
f 103//174 105//174 170//174 169//174
