# Blender v2.78 (sub 0) OBJ File: 'tree.blend'
# www.blender.org
mtllib tree1.mtl
o Cylinder.000_Cylinder.008
v -0.484626 -0.940358 -0.093090
v -0.202415 0.322874 -0.049141
v -0.204948 -0.940358 -0.552146
v -0.036472 0.322874 -0.321517
v 0.317416 -0.940358 -0.678987
v 0.273467 0.322874 -0.396776
v 0.776472 -0.940358 -0.399309
v 0.545843 0.322874 -0.230833
v 0.903312 -0.940358 0.123054
v 0.621102 0.322874 0.079106
v 0.623635 -0.940358 0.582111
v 0.455159 0.322874 0.351482
v 0.101271 -0.940358 0.708951
v 0.145220 0.322874 0.426741
v -0.357785 -0.940358 0.429274
v -0.127156 0.322874 0.260798
v -0.253712 1.773592 -0.057130
v -0.067096 1.773592 -0.363438
v 0.281455 1.773592 -0.448073
v 0.587764 1.773592 -0.261457
v 0.672399 1.773592 0.087094
v 0.485782 1.773592 0.393403
v 0.137232 1.773592 0.478038
v -0.169077 1.773592 0.291421
v -0.507671 2.636204 -0.034218
v -0.184410 2.636204 -0.564811
v 0.419356 2.636204 -0.711418
v 0.949949 2.636204 -0.388157
v 1.096555 2.636204 0.215609
v 0.773295 2.636204 0.746202
v 0.169529 2.636204 0.892809
v -0.361064 2.636204 0.569548
v 0.441250 5.215889 -1.402693
v 0.609957 5.166378 -1.709544
v 1.073063 5.055093 -1.833660
v 1.511457 5.094494 -1.613402
v 1.668336 5.261502 -1.177795
v 0.279629 3.494963 0.185819
v 1.016150 5.402145 -1.040523
v -0.714321 7.547942 -1.933768
v -0.561476 7.510924 -2.182784
v -0.275435 7.495591 -2.251244
v -0.023759 7.510924 -2.099045
v 0.046126 7.547942 -1.815343
v -0.354579 7.566220 -1.743037
v -0.632805 9.864071 -1.329873
v -0.548862 9.843742 -1.466633
v -0.391768 9.835320 -1.504232
v -0.253546 9.843742 -1.420643
v -0.215165 9.864071 -1.264834
v -0.435234 9.874107 -1.225123
v -1.938050 3.865406 1.278363
v -0.674016 4.275644 1.616308
v -0.941780 4.178135 2.097544
v -1.429201 3.942726 2.238245
v -1.850756 3.707318 1.955989
v -1.246108 4.175087 1.062541
v -2.275671 8.079706 1.490173
v -1.450995 8.079706 1.618601
v -1.617171 8.079706 1.891360
v -1.927546 8.079706 1.966725
v -2.200305 8.079706 1.800548
v -1.822985 8.079706 1.295303
v -2.111566 10.184658 2.158027
v -1.810413 10.184658 2.204926
v -1.871097 10.184658 2.304531
v -1.984439 10.184658 2.332052
v -2.084044 10.184658 2.271368
v -1.946255 10.184658 2.086864
v -1.444848 -1.542200 -0.242626
v -0.778190 -1.542200 -1.336864
v 0.466952 -1.542200 -1.639209
v 1.561190 -1.542200 -0.972552
v 1.863535 -1.542200 0.272590
v 1.196877 -1.542200 1.366829
v -0.048265 -1.542200 1.669174
v -1.142503 -1.542200 1.002517
v 0.180983 2.636204 -0.418857
v 0.773793 2.636204 -0.232837
v 0.659868 2.318210 0.255342
v 0.501406 2.318210 0.671194
v 0.012939 2.636204 0.464658
v 1.333682 4.462133 0.532701
v 1.658112 4.402639 0.625740
v 1.864362 4.194940 1.002325
v 1.731431 4.101507 1.450760
v 1.337189 4.177074 1.708359
v 0.156950 3.482377 0.398259
v 1.083185 4.458114 1.167806
v 1.381414 5.927105 1.084520
v 1.816289 5.869867 1.193806
v 2.048257 5.846160 1.451506
v 1.941434 5.869867 1.706663
v 1.558396 5.927105 1.809809
v 1.267977 5.955368 1.445648
v 2.661601 7.399173 1.462495
v 2.769873 7.384781 1.496865
v 2.822479 7.378818 1.598396
v 2.788603 7.384781 1.707613
v 2.688088 7.399173 1.760538
v 2.623298 7.406278 1.616097
v 1.050384 5.298158 -1.263911
v 0.911803 5.169911 -1.169939
v 0.729270 5.080561 -1.226342
v 0.609711 5.082448 -1.400080
v 0.623162 5.174468 -1.589380
v 0.135918 5.925488 -0.522874
v 0.035857 5.782661 -0.445455
v -0.145593 5.606261 -0.537343
v -0.322332 5.618666 -0.733046
v -0.390828 5.812610 -0.917924
v 0.649744 5.573936 -1.309454
v -0.134741 6.041104 -0.776445
v -0.098936 6.864613 0.141673
v -0.208749 6.721282 0.214913
v -0.369023 6.628679 0.157801
v -0.485871 6.641049 0.003794
v -0.490846 6.751146 -0.156893
v -0.269008 6.870447 -0.065362
v -0.812914 7.622367 0.484312
v -0.844078 7.581690 0.505096
v -0.889563 7.555411 0.488889
v -0.922724 7.558921 0.445182
v -0.924136 7.590166 0.399580
v -0.861179 7.624022 0.425556
v -1.350182 5.479342 1.709485
v -1.151397 5.412766 1.686355
v -1.037644 5.253005 1.763940
v -1.075558 5.093645 1.896791
v -1.242930 5.028036 2.007088
v -0.830813 6.066938 2.358346
v -0.658682 5.993214 2.394967
v -0.568561 5.753813 2.478929
v -0.676633 5.566148 2.629902
v -0.919589 5.540151 2.759446
v -1.214006 5.484530 2.178601
v -1.025024 5.872969 2.633262
v -0.896764 7.040313 3.011741
v -0.725020 6.959994 3.056679
v -0.668653 6.805466 3.158997
v -0.760682 6.667249 3.258754
v -0.947197 6.626310 3.297517
v -1.010428 6.843033 3.153105
v -0.965573 7.509658 3.999840
v -0.916833 7.486863 4.012593
v -0.900836 7.443009 4.041630
v -0.926954 7.403784 4.069941
v -0.979886 7.392166 4.080942
v -0.997830 7.453670 4.039957
v 1.338378 5.200744 1.067231
v 1.601460 5.112633 1.036619
v 1.752007 4.901197 1.139298
v 1.701830 4.690290 1.315121
v 1.480321 4.603461 1.461094
v 2.016259 5.978398 1.934763
v 2.220817 5.880829 2.046123
v 2.303487 5.563992 2.186619
v 2.109463 5.315627 2.337394
v 1.752402 5.281221 2.410128
v 1.518600 5.207610 1.688083
v 1.666224 5.721690 2.210296
v 1.900690 6.526810 2.589917
v 2.101620 6.420510 2.711683
v 2.134550 6.216000 2.862736
v 1.980188 6.033077 2.954589
v 1.728958 5.978896 2.933438
v 1.703193 6.265718 2.726394
v 1.613074 7.887769 2.976225
v 1.670096 7.857601 3.010782
v 1.679441 7.799564 3.053650
v 1.635635 7.747650 3.079717
v 1.564337 7.732275 3.073715
v 1.557027 7.813673 3.014957
v -1.257549 4.972152 1.511212
v -1.540468 4.862950 1.677673
v -1.762563 4.600903 1.636664
v -1.793733 4.339511 1.412208
v -1.318288 4.231897 1.182107
v -2.460522 5.935954 0.867208
v -2.748196 5.815029 0.843408
v -2.912279 5.422351 0.725534
v -2.767830 5.114533 0.457433
v -2.399467 5.071892 0.196154
v -1.105375 4.980661 1.491436
v -2.201689 5.617795 0.379540
v -2.657618 6.615638 0.066598
v -2.946390 6.483893 0.029184
v -3.059371 6.230429 -0.125569
v -2.930377 6.003720 -0.307008
v -2.634972 5.936570 -0.408850
v -2.502072 6.292049 -0.187034
v -2.525026 8.302370 -0.515394
v -2.606977 8.264980 -0.526013
v -2.639040 8.193050 -0.569930
v -2.602433 8.128712 -0.621422
v -2.518598 8.109655 -0.650325
v -2.480883 8.210537 -0.587373
vn -0.8359 0.2045 -0.5093
vn -0.2310 0.2045 -0.9512
vn 0.5093 0.2045 -0.8359
vn 0.9512 0.2045 -0.2310
vn 0.8359 0.2045 0.5093
vn 0.2310 0.2045 0.9512
vn 0.2358 -0.0330 0.9712
vn -0.9512 0.2045 0.2310
vn -0.5093 0.2045 0.8359
vn -0.2897 0.8306 0.4755
vn -0.4845 -0.3643 0.7953
vn -0.2358 -0.0330 -0.9712
vn -0.8535 -0.0330 -0.5200
vn 0.8535 -0.0330 0.5200
vn -0.9712 -0.0330 0.2358
vn 0.9712 -0.0330 -0.2358
vn -0.5200 -0.0330 0.8535
vn 0.5200 -0.0330 -0.8535
vn -0.9327 -0.2806 0.2265
vn 0.7646 -0.4454 0.4658
vn 0.4920 -0.3252 -0.8076
vn -0.8309 -0.2312 -0.5062
vn -0.2644 -0.3366 -0.9038
vn 0.2131 -0.4299 0.8774
vn 0.8886 -0.4048 -0.2158
vn -0.2284 -0.2507 -0.9407
vn 0.4449 -0.4760 -0.7586
vn 0.9226 -0.3181 -0.2183
vn 0.3332 0.3979 0.8548
vn -0.8603 0.0437 -0.5080
vn -0.6472 0.5490 0.5289
vn 0.2379 0.4232 0.8742
vn -0.7913 -0.4761 -0.3836
vn -0.2862 -0.3189 -0.9035
vn 0.4650 0.1128 -0.8781
vn -0.5014 -0.0446 0.8641
vn 0.8069 0.4505 -0.3821
vn 0.9518 0.1683 -0.2564
vn 0.1643 -0.2105 0.9637
vn -0.8287 0.1683 -0.5337
vn -0.4496 -0.2105 0.8681
vn -0.2083 0.2881 -0.9347
vn 0.4826 0.2881 -0.8271
vn 0.3157 -0.4324 0.8446
vn -0.1465 -0.8222 0.5500
vn -0.3393 0.4325 -0.8353
vn -0.6108 -0.7916 0.0138
vn 0.5142 0.8492 -0.1206
vn 0.7665 0.4177 0.4880
vn -0.9855 -0.0799 0.1495
vn 0.6660 0.1393 -0.7328
vn 0.8439 0.1725 0.5080
vn -0.3408 0.0131 -0.9400
vn 0.2350 0.0918 0.9677
vn -0.5397 -0.0115 0.8418
vn -0.9718 0.0009 0.2360
vn 0.6244 0.3067 -0.7184
vn 0.8540 0.0009 0.5203
vn -0.3763 0.3067 -0.8742
vn 0.2329 -0.1602 0.9592
vn -0.5136 -0.1602 0.8430
vn 0.0209 0.9907 -0.1344
vn 0.0000 1.0000 -0.0000
vn 0.0000 -1.0000 -0.0000
vn 0.2897 0.8306 -0.4755
vn 0.1314 0.8306 0.5411
vn -0.1314 0.8306 -0.5411
vn -0.4755 0.8306 -0.2897
vn 0.4755 0.8306 0.2897
vn -0.5411 0.8306 0.1314
vn 0.5411 0.8306 -0.1314
vn 0.8766 -0.3639 -0.3148
vn 0.7764 -0.5986 0.1971
vn -0.1416 -0.4330 0.8902
vn -0.7809 0.2354 0.5787
vn 0.2957 0.2908 -0.9099
vn -0.5197 0.6928 -0.5000
vn -0.8491 0.0447 0.5263
vn 0.2898 0.3237 -0.9007
vn 0.8341 0.0862 -0.5448
vn 0.9377 -0.1704 0.3027
vn -0.9246 0.1683 -0.3418
vn 0.3969 -0.1408 0.9070
vn 0.2798 -0.1699 0.9449
vn -0.6680 0.5470 0.5046
vn 0.2589 0.0265 -0.9655
vn -0.6950 0.6737 -0.2512
vn 0.7284 -0.3238 -0.6038
vn 0.8188 -0.4527 0.3530
vn 0.1355 0.9907 -0.0120
vn 0.1738 -0.6506 0.7393
vn -0.3484 -0.9049 0.2444
vn -0.6581 -0.6418 -0.3937
vn -0.1583 0.5983 -0.7854
vn 0.6147 -0.0432 0.7876
vn 0.5177 0.8545 -0.0437
vn -0.0833 0.6311 -0.7712
vn 0.7579 -0.2356 0.6083
vn 0.0754 -0.5547 0.8286
vn -0.6792 -0.5029 0.5346
vn 0.6764 0.5350 -0.5062
vn -0.9831 -0.1745 0.0555
vn -0.9184 -0.3391 -0.2039
vn 0.0361 0.5652 -0.8241
vn 0.4900 0.0687 0.8690
vn 0.5506 0.7142 -0.4322
vn -0.1038 -0.3858 0.9167
vn -0.6841 -0.5538 0.4746
vn -0.5608 0.6748 0.4797
vn 0.7682 0.1394 -0.6249
vn 0.8490 -0.4991 -0.1735
vn 0.4001 -0.8414 0.3632
vn -0.8820 -0.1118 0.4578
vn 0.2633 0.6255 -0.7345
vn -0.8431 0.5332 0.0695
vn -0.9472 -0.1515 0.2828
vn 0.4131 0.5301 -0.7405
vn 0.9416 0.2369 -0.2395
vn 0.8744 -0.1952 0.4441
vn -0.8738 0.2342 -0.4262
vn 0.3872 -0.4185 0.8215
vn 0.2893 -0.6784 0.6753
vn -0.9717 -0.1880 0.1433
vn 0.4705 0.8093 -0.3517
vn -0.9054 0.3555 -0.2319
vn 0.9395 0.3425 -0.0003
vn 0.8648 -0.2706 0.4229
vn 0.0477 0.5635 0.8247
vn 0.8279 0.1125 -0.5495
vn 0.8560 -0.5110 -0.0786
vn 0.3391 -0.8343 0.4346
vn -0.9485 -0.0516 0.3124
vn 0.3578 0.5843 -0.7284
vn -0.8390 0.5441 -0.0073
vn -0.9893 -0.0870 0.1168
vn 0.5934 0.6698 -0.4464
vn 0.9748 0.2226 0.0116
vn 0.7800 -0.3314 0.5308
vn -0.7675 0.4423 -0.4640
vn 0.1547 -0.6098 0.7773
vn -0.0652 -0.0857 0.9942
vn -0.9956 -0.0931 -0.0050
vn 0.6113 0.3330 -0.7180
vn -0.6381 0.0825 -0.7656
vn 0.9559 0.2578 0.1406
vn 0.4820 0.0330 0.8756
vn -0.1892 0.5635 0.8042
vn -0.5352 0.1125 0.8372
vn -0.7512 -0.5110 0.4178
vn -0.3559 -0.8683 -0.3456
vn 0.7083 0.0435 -0.7046
vn -0.0329 0.5843 0.8109
vn 0.5831 0.8120 -0.0232
vn 0.8578 -0.0870 -0.5066
vn -0.3624 0.6698 0.6481
vn -0.8964 0.2226 0.3833
vn -0.9280 -0.3314 -0.1704
vn 0.8895 0.4423 0.1143
vn -0.4556 -0.6098 -0.6485
vn -0.3421 -0.0857 -0.9358
vn 0.9128 -0.0931 -0.3977
vn -0.2690 0.3330 0.9037
vn 0.8930 0.0825 0.4424
vn -0.9312 0.2578 0.2577
vn -0.7947 0.0330 -0.6061
vn -0.1519 0.5635 -0.8120
usemtl Material.001
s off
f 1//1 2//1 4//1 3//1
f 3//2 4//2 6//2 5//2
f 5//3 6//3 8//3 7//3
f 7//4 8//4 10//4 9//4
f 9//5 10//5 12//5 11//5
f 11//6 12//6 14//6 13//6
f 14//7 12//7 22//7 23//7
f 15//8 16//8 2//8 1//8
f 13//9 14//9 16//9 15//9
f 13//10 15//10 77//10 76//10
f 23//11 31//11 32//11 24//11
f 6//12 4//12 18//12 19//12
f 4//13 2//13 17//13 18//13
f 12//14 10//14 21//14 22//14
f 2//15 16//15 24//15 17//15
f 10//16 8//16 20//16 21//16
f 16//17 14//17 23//17 24//17
f 8//18 6//18 19//18 20//18
f 24//19 32//19 25//19 17//19
f 21//20 29//20 30//20 22//20
f 19//21 27//21 28//21 20//21
f 17//22 25//22 26//22 18//22
f 27//23 26//23 34//23 35//23
f 22//24 30//24 31//24 23//24
f 20//25 28//25 29//25 21//25
f 18//26 26//26 27//26 19//26
f 28//27 27//27 35//27 36//27
f 29//28 28//28 36//28 37//28
f 38//29 29//29 37//29 39//29
f 26//30 25//30 33//30 34//30
f 25//31 38//31 39//31 33//31
f 39//32 37//32 44//32 45//32
f 34//33 33//33 40//33 41//33
f 35//34 34//34 41//34 42//34
f 36//35 35//35 42//35 43//35
f 33//36 39//36 45//36 40//36
f 37//37 36//37 43//37 44//37
f 44//38 43//38 49//38 50//38
f 45//39 44//39 50//39 51//39
f 41//40 40//40 46//40 47//40
f 40//41 45//41 51//41 46//41
f 42//42 41//42 47//42 48//42
f 43//43 42//43 48//43 49//43
f 31//44 30//44 54//44 55//44
f 32//45 31//45 55//45 56//45
f 38//46 25//46 52//46 57//46
f 25//47 32//47 56//47 52//47
f 29//48 38//48 57//48 53//48
f 30//49 29//49 53//49 54//49
f 52//50 56//50 62//50 58//50
f 53//51 57//51 63//51 59//51
f 54//52 53//52 59//52 60//52
f 57//53 52//53 58//53 63//53
f 55//54 54//54 60//54 61//54
f 56//55 55//55 61//55 62//55
f 58//56 62//56 68//56 64//56
f 59//57 63//57 69//57 65//57
f 60//58 59//58 65//58 66//58
f 63//59 58//59 64//59 69//59
f 61//60 60//60 66//60 67//60
f 62//61 61//61 67//61 68//61
f 47//62 46//62 51//62 50//62 49//62 48//62
f 66//63 65//63 69//63 64//63 68//63 67//63
f 70//64 71//64 72//64 73//64 74//64 75//64 76//64 77//64
f 5//65 7//65 73//65 72//65
f 11//66 13//66 76//66 75//66
f 3//67 5//67 72//67 71//67
f 1//68 3//68 71//68 70//68
f 9//69 11//69 75//69 74//69
f 15//70 1//70 70//70 77//70
f 7//71 9//71 74//71 73//71
f 80//72 79//72 84//72 85//72
f 81//73 80//73 85//73 86//73
f 82//74 81//74 86//74 87//74
f 88//75 82//75 87//75 89//75
f 79//76 78//76 83//76 84//76
f 78//77 88//77 89//77 83//77
f 89//78 87//78 94//78 95//78
f 84//79 83//79 90//79 91//79
f 85//80 84//80 91//80 92//80
f 86//81 85//81 92//81 93//81
f 83//82 89//82 95//82 90//82
f 87//83 86//83 93//83 94//83
f 94//84 93//84 99//84 100//84
f 95//85 94//85 100//85 101//85
f 91//86 90//86 96//86 97//86
f 90//87 95//87 101//87 96//87
f 92//88 91//88 97//88 98//88
f 93//89 92//89 98//89 99//89
f 97//90 96//90 101//90 100//90 99//90 98//90
f 104//91 103//91 108//91 109//91
f 105//92 104//92 109//92 110//92
f 106//93 105//93 110//93 111//93
f 112//94 106//94 111//94 113//94
f 103//95 102//95 107//95 108//95
f 102//96 112//96 113//96 107//96
f 113//97 111//97 118//97 119//97
f 108//98 107//98 114//98 115//98
f 109//99 108//99 115//99 116//99
f 110//100 109//100 116//100 117//100
f 107//101 113//101 119//101 114//101
f 111//102 110//102 117//102 118//102
f 118//103 117//103 123//103 124//103
f 119//104 118//104 124//104 125//104
f 115//105 114//105 120//105 121//105
f 114//106 119//106 125//106 120//106
f 116//107 115//107 121//107 122//107
f 117//108 116//108 122//108 123//108
f 121//109 120//109 125//109 124//109 123//109 122//109
f 128//110 127//110 132//110 133//110
f 129//111 128//111 133//111 134//111
f 130//112 129//112 134//112 135//112
f 136//113 130//113 135//113 137//113
f 127//114 126//114 131//114 132//114
f 126//115 136//115 137//115 131//115
f 137//116 135//116 142//116 143//116
f 132//117 131//117 138//117 139//117
f 133//118 132//118 139//118 140//118
f 134//119 133//119 140//119 141//119
f 131//120 137//120 143//120 138//120
f 135//121 134//121 141//121 142//121
f 142//122 141//122 147//122 148//122
f 143//123 142//123 148//123 149//123
f 139//124 138//124 144//124 145//124
f 138//125 143//125 149//125 144//125
f 140//126 139//126 145//126 146//126
f 141//127 140//127 146//127 147//127
f 145//128 144//128 149//128 148//128 147//128 146//128
f 152//129 151//129 156//129 157//129
f 153//130 152//130 157//130 158//130
f 154//131 153//131 158//131 159//131
f 160//132 154//132 159//132 161//132
f 151//133 150//133 155//133 156//133
f 150//134 160//134 161//134 155//134
f 161//135 159//135 166//135 167//135
f 156//136 155//136 162//136 163//136
f 157//137 156//137 163//137 164//137
f 158//138 157//138 164//138 165//138
f 155//139 161//139 167//139 162//139
f 159//140 158//140 165//140 166//140
f 166//141 165//141 171//141 172//141
f 167//142 166//142 172//142 173//142
f 163//143 162//143 168//143 169//143
f 162//144 167//144 173//144 168//144
f 164//145 163//145 169//145 170//145
f 165//146 164//146 170//146 171//146
f 169//147 168//147 173//147 172//147 171//147 170//147
f 176//148 175//148 180//148 181//148
f 177//149 176//149 181//149 182//149
f 178//150 177//150 182//150 183//150
f 184//151 178//151 183//151 185//151
f 175//152 174//152 179//152 180//152
f 174//153 184//153 185//153 179//153
f 185//154 183//154 190//154 191//154
f 180//155 179//155 186//155 187//155
f 181//156 180//156 187//156 188//156
f 182//157 181//157 188//157 189//157
f 179//158 185//158 191//158 186//158
f 183//159 182//159 189//159 190//159
f 190//160 189//160 195//160 196//160
f 191//161 190//161 196//161 197//161
f 187//162 186//162 192//162 193//162
f 186//163 191//163 197//163 192//163
f 188//164 187//164 193//164 194//164
f 189//165 188//165 194//165 195//165
f 193//166 192//166 197//166 196//166 195//166 194//166
